<?xml version="1.0" encoding="UTF-8"?>
<svg width="30px" height="30px" viewBox="0 0 30 30" version="1.1" xmlns="http://www.w3.org/2000/svg" xmlns:xlink="http://www.w3.org/1999/xlink">
    <!-- Generator: Sketch 58 (84663) - https://sketch.com -->
    <title>edit-icon</title>
    <desc>Created with Sketch.</desc>
    <g id="🗒-Wireframes" stroke="none" stroke-width="1" fill="none" fill-rule="evenodd">
        <g id="edit-icon">
            <path d="M28.0551753,1.47725033 C30.237878,10.2021438 30.237878,19.3303569 28.0551753,28.0552503 C19.3303274,30.2383229 10.2020231,30.2383229 1.47717526,28.0552503 C-0.492391754,19.3053833 -0.492391754,10.2271174 1.47717526,1.47725033 C10.2270312,-0.492416777 19.3053194,-0.492416777 28.0551753,1.47725033 Z" id="Combined-Shape" fill="#E65A24"></path>
            <g id="pen-solid" transform="translate(6.000000, 6.000000)" fill="#FFFFFF" fill-rule="nonzero">
                <path d="M10.2203421,3.27778275 L14.7211109,7.77806253 L4.94694136,17.5526702 L0.933755839,17.9951977 C0.679547384,18.0224171 0.42670312,17.9329395 0.246214688,17.7518875 C0.0657262552,17.5708356 -0.0229450502,17.3177315 0.00509720909,17.0636398 L0.455174089,13.0478901 L10.2203421,3.27778275 Z M17.5063367,2.60799111 L15.3924756,0.494359705 C14.7330942,-0.164786568 13.6641992,-0.164786568 13.0048178,0.494359705 L11.0162281,2.48273332 L15.5169969,6.9830131 L17.5055866,4.99463948 C18.1648045,4.33532974 18.1648045,3.26655081 17.5055866,2.60724106 L17.5063367,2.60799111 Z"></path>
            </g>
        </g>
    </g>
</svg>