<?xml version="1.0" encoding="UTF-8"?>
<svg width="32px" height="32px" viewBox="0 0 32 32" version="1.1" xmlns="http://www.w3.org/2000/svg" xmlns:xlink="http://www.w3.org/1999/xlink">
    <!-- Generator: Sketch 58 (84663) - https://sketch.com -->
    <title>Trash-icon</title>
    <desc>Created with Sketch.</desc>
    <g id="🗒-Wireframes" stroke="none" stroke-width="1" fill="none" fill-rule="evenodd">
        <g id="Trash-icon" transform="translate(1.000000, 1.000000)">
            <g id="iconeborda" stroke="#FFFFFF">
                <path d="M28.553,28.554 C19.8281521,30.7370726 10.6998479,30.7370726 1.975,28.554 C0.00543298236,19.804133 0.00543298236,10.725867 1.975,1.976 C10.7248559,0.0063328922 19.8031441,0.0063328922 28.553,1.976 C30.7357027,10.7008934 30.7357027,19.8291066 28.553,28.554 L28.553,28.554 Z" id="Path"></path>
            </g>
            <g id="trash-solid" transform="translate(8.000000, 7.000000)" fill="#FFFFFF" fill-rule="nonzero">
                <path d="M14.509,1.075 L10.479,1.075 L10.163,0.447 C10.0267013,0.173022939 9.74700777,-0.00013910638 9.441,-7.4991326e-07 L5.6,-7.4991326e-07 C5.29466924,-0.000416875238 5.01572704,0.173000599 4.881,0.447 L4.565,1.075 L0.537,1.075 C0.240423089,1.075 0,1.31542309 0,1.612 L0,2.687 C0,2.98357691 0.240423089,3.224 0.537,3.224 L14.509,3.224 C14.8055769,3.224 15.046,2.98357691 15.046,2.687 L15.046,1.612 C15.046,1.31542309 14.8055769,1.075 14.509,1.075 Z M1.787,15.684 C1.83788527,16.5369731 2.54551287,17.2020465 3.4,17.2000047 L11.65,17.2000047 C12.5011301,17.2000047 13.2056724,16.5384578 13.259,15.689 L13.971,4.3 L1.075,4.3 L1.787,15.684 Z" id="Shape"></path>
            </g>
        </g>
    </g>
</svg>